<mxfile host="app.diagrams.net" modified="2023-08-29T16:58:03.127Z" agent="Mozilla/5.0 (Windows NT 10.0; Win64; x64; rv:109.0) Gecko/20100101 Firefox/116.0" etag="F4qNjqyMBkI3k6OrcsO2" version="21.6.6" type="device">
  <diagram name="Page-1" id="No7O4A_Uq5Ukz30xT3aP">
    <mxGraphModel dx="794" dy="414" grid="1" gridSize="10" guides="1" tooltips="1" connect="1" arrows="1" fold="1" page="1" pageScale="1" pageWidth="850" pageHeight="1100" math="0" shadow="0">
      <root>
        <mxCell id="0" />
        <mxCell id="1" parent="0" />
        <mxCell id="WB-ahJv37rw48Ibi2NWJ-1" value="Weather Station" style="rounded=1;whiteSpace=wrap;html=1;" vertex="1" parent="1">
          <mxGeometry x="210" y="80" width="140" height="120" as="geometry" />
        </mxCell>
        <mxCell id="WB-ahJv37rw48Ibi2NWJ-3" value="Humidity Sensor Device" style="text;html=1;align=center;verticalAlign=middle;resizable=0;points=[];autosize=1;strokeColor=none;fillColor=none;" vertex="1" parent="1">
          <mxGeometry x="10" y="28" width="150" height="30" as="geometry" />
        </mxCell>
        <mxCell id="WB-ahJv37rw48Ibi2NWJ-4" value="Temperature Sensor Device" style="text;html=1;align=center;verticalAlign=middle;resizable=0;points=[];autosize=1;strokeColor=none;fillColor=none;" vertex="1" parent="1">
          <mxGeometry y="140" width="170" height="30" as="geometry" />
        </mxCell>
        <mxCell id="WB-ahJv37rw48Ibi2NWJ-5" value="Pressure Sensor Device" style="text;html=1;align=center;verticalAlign=middle;resizable=0;points=[];autosize=1;strokeColor=none;fillColor=none;" vertex="1" parent="1">
          <mxGeometry x="10" y="240" width="150" height="30" as="geometry" />
        </mxCell>
        <mxCell id="WB-ahJv37rw48Ibi2NWJ-8" value="" style="endArrow=none;html=1;rounded=0;exitX=0;exitY=0;exitDx=0;exitDy=0;entryX=0.567;entryY=1.033;entryDx=0;entryDy=0;entryPerimeter=0;" edge="1" parent="1" source="WB-ahJv37rw48Ibi2NWJ-1" target="WB-ahJv37rw48Ibi2NWJ-3">
          <mxGeometry width="50" height="50" relative="1" as="geometry">
            <mxPoint x="50" y="120" as="sourcePoint" />
            <mxPoint x="100" y="70" as="targetPoint" />
          </mxGeometry>
        </mxCell>
        <mxCell id="WB-ahJv37rw48Ibi2NWJ-9" value="" style="endArrow=none;html=1;rounded=0;entryX=1.018;entryY=0.5;entryDx=0;entryDy=0;entryPerimeter=0;exitX=0;exitY=0.5;exitDx=0;exitDy=0;" edge="1" parent="1" source="WB-ahJv37rw48Ibi2NWJ-1" target="WB-ahJv37rw48Ibi2NWJ-4">
          <mxGeometry width="50" height="50" relative="1" as="geometry">
            <mxPoint x="190" y="140" as="sourcePoint" />
            <mxPoint x="95" y="120" as="targetPoint" />
          </mxGeometry>
        </mxCell>
        <mxCell id="WB-ahJv37rw48Ibi2NWJ-10" value="" style="endArrow=none;html=1;rounded=0;exitX=0;exitY=1;exitDx=0;exitDy=0;entryX=1.013;entryY=-0.033;entryDx=0;entryDy=0;entryPerimeter=0;" edge="1" parent="1" source="WB-ahJv37rw48Ibi2NWJ-1" target="WB-ahJv37rw48Ibi2NWJ-5">
          <mxGeometry width="50" height="50" relative="1" as="geometry">
            <mxPoint x="220" y="90" as="sourcePoint" />
            <mxPoint x="105" y="69" as="targetPoint" />
          </mxGeometry>
        </mxCell>
        <mxCell id="WB-ahJv37rw48Ibi2NWJ-11" value="WeatherData Object" style="ellipse;whiteSpace=wrap;html=1;aspect=fixed;" vertex="1" parent="1">
          <mxGeometry x="460" y="100" width="80" height="80" as="geometry" />
        </mxCell>
        <mxCell id="WB-ahJv37rw48Ibi2NWJ-12" value="" style="curved=1;endArrow=classic;html=1;rounded=0;exitX=0.5;exitY=0;exitDx=0;exitDy=0;entryX=1;entryY=0.5;entryDx=0;entryDy=0;" edge="1" parent="1" source="WB-ahJv37rw48Ibi2NWJ-11" target="WB-ahJv37rw48Ibi2NWJ-1">
          <mxGeometry width="50" height="50" relative="1" as="geometry">
            <mxPoint x="380" y="70" as="sourcePoint" />
            <mxPoint x="430" y="20" as="targetPoint" />
            <Array as="points">
              <mxPoint x="430" y="70" />
              <mxPoint x="390" y="70" />
            </Array>
          </mxGeometry>
        </mxCell>
        <mxCell id="WB-ahJv37rw48Ibi2NWJ-13" value="Pulls data" style="text;html=1;align=center;verticalAlign=middle;resizable=0;points=[];autosize=1;strokeColor=none;fillColor=none;" vertex="1" parent="1">
          <mxGeometry x="360" y="40" width="80" height="30" as="geometry" />
        </mxCell>
        <mxCell id="WB-ahJv37rw48Ibi2NWJ-14" value="" style="shape=curlyBracket;whiteSpace=wrap;html=1;rounded=1;labelPosition=left;verticalLabelPosition=middle;align=right;verticalAlign=middle;direction=north;" vertex="1" parent="1">
          <mxGeometry x="210" y="260" width="150" height="20" as="geometry" />
        </mxCell>
        <mxCell id="WB-ahJv37rw48Ibi2NWJ-15" value="Provided by Client" style="text;html=1;strokeColor=none;fillColor=none;align=center;verticalAlign=middle;whiteSpace=wrap;rounded=0;" vertex="1" parent="1">
          <mxGeometry x="210" y="290" width="150" height="50" as="geometry" />
        </mxCell>
        <mxCell id="WB-ahJv37rw48Ibi2NWJ-16" value="Provided by Client, which we need to utilize and provide three displays and also for future displays" style="text;html=1;strokeColor=none;fillColor=none;align=center;verticalAlign=middle;whiteSpace=wrap;rounded=0;" vertex="1" parent="1">
          <mxGeometry x="430" y="290" width="150" height="70" as="geometry" />
        </mxCell>
        <mxCell id="WB-ahJv37rw48Ibi2NWJ-17" value="" style="shape=curlyBracket;whiteSpace=wrap;html=1;rounded=1;labelPosition=left;verticalLabelPosition=middle;align=right;verticalAlign=middle;direction=north;" vertex="1" parent="1">
          <mxGeometry x="425" y="260" width="150" height="20" as="geometry" />
        </mxCell>
        <mxCell id="WB-ahJv37rw48Ibi2NWJ-18" value="Current Conditions" style="whiteSpace=wrap;html=1;aspect=fixed;" vertex="1" parent="1">
          <mxGeometry x="680" y="20" width="80" height="80" as="geometry" />
        </mxCell>
        <mxCell id="WB-ahJv37rw48Ibi2NWJ-19" value="Weather Statistics" style="whiteSpace=wrap;html=1;aspect=fixed;" vertex="1" parent="1">
          <mxGeometry x="680" y="150" width="80" height="80" as="geometry" />
        </mxCell>
        <mxCell id="WB-ahJv37rw48Ibi2NWJ-20" value="Simple Forecast" style="whiteSpace=wrap;html=1;aspect=fixed;" vertex="1" parent="1">
          <mxGeometry x="680" y="275" width="80" height="80" as="geometry" />
        </mxCell>
        <mxCell id="WB-ahJv37rw48Ibi2NWJ-21" value="" style="shape=curlyBracket;whiteSpace=wrap;html=1;rounded=1;labelPosition=left;verticalLabelPosition=middle;align=right;verticalAlign=middle;" vertex="1" parent="1">
          <mxGeometry x="620" y="20" width="20" height="340" as="geometry" />
        </mxCell>
        <mxCell id="WB-ahJv37rw48Ibi2NWJ-24" value="" style="curved=1;endArrow=classic;html=1;rounded=0;entryX=0.5;entryY=0.5;entryDx=0;entryDy=0;entryPerimeter=0;exitX=1;exitY=0;exitDx=0;exitDy=0;" edge="1" parent="1" source="WB-ahJv37rw48Ibi2NWJ-11" target="WB-ahJv37rw48Ibi2NWJ-21">
          <mxGeometry width="50" height="50" relative="1" as="geometry">
            <mxPoint x="570" y="240" as="sourcePoint" />
            <mxPoint x="620" y="190" as="targetPoint" />
            <Array as="points">
              <mxPoint x="580" y="60" />
              <mxPoint x="570" y="190" />
            </Array>
          </mxGeometry>
        </mxCell>
        <mxCell id="WB-ahJv37rw48Ibi2NWJ-25" value="displays" style="text;html=1;align=center;verticalAlign=middle;resizable=0;points=[];autosize=1;strokeColor=none;fillColor=none;" vertex="1" parent="1">
          <mxGeometry x="530" y="58" width="70" height="30" as="geometry" />
        </mxCell>
        <mxCell id="WB-ahJv37rw48Ibi2NWJ-27" value="" style="shape=curlyBracket;whiteSpace=wrap;html=1;rounded=1;labelPosition=left;verticalLabelPosition=middle;align=right;verticalAlign=middle;direction=north;" vertex="1" parent="1">
          <mxGeometry x="660" y="380" width="120" height="20" as="geometry" />
        </mxCell>
        <mxCell id="WB-ahJv37rw48Ibi2NWJ-28" value="We need to implement these displays and also accommodate for future display changes " style="text;html=1;strokeColor=none;fillColor=none;align=center;verticalAlign=middle;whiteSpace=wrap;rounded=0;" vertex="1" parent="1">
          <mxGeometry x="660" y="420" width="110" height="90" as="geometry" />
        </mxCell>
      </root>
    </mxGraphModel>
  </diagram>
</mxfile>
